<mxfile host="app.diagrams.net" modified="2022-01-02T21:01:57.099Z" agent="5.0 (Macintosh; Intel Mac OS X 10_15_7) AppleWebKit/537.36 (KHTML, like Gecko) Chrome/96.0.4664.110 Safari/537.36" etag="GkpTWtfZXGJEmAHJVqlg" version="16.1.2" type="github">
  <diagram id="29NIJwVER2qVtDaA8X9I" name="Page-1">
    <mxGraphModel dx="1639" dy="1940" grid="1" gridSize="10" guides="1" tooltips="1" connect="1" arrows="1" fold="1" page="1" pageScale="1" pageWidth="850" pageHeight="1100" math="0" shadow="0">
      <root>
        <mxCell id="0" />
        <mxCell id="1" parent="0" />
        <mxCell id="kGxBxlIGUOEUOIpiZbDs-7" style="edgeStyle=orthogonalEdgeStyle;rounded=0;orthogonalLoop=1;jettySize=auto;html=1;entryX=0;entryY=0.5;entryDx=0;entryDy=0;" edge="1" parent="1" source="kGxBxlIGUOEUOIpiZbDs-2" target="kGxBxlIGUOEUOIpiZbDs-3">
          <mxGeometry relative="1" as="geometry" />
        </mxCell>
        <mxCell id="kGxBxlIGUOEUOIpiZbDs-2" value="Current Job" style="rounded=1;whiteSpace=wrap;html=1;" vertex="1" parent="1">
          <mxGeometry x="20" y="20" width="90" height="40" as="geometry" />
        </mxCell>
        <mxCell id="kGxBxlIGUOEUOIpiZbDs-13" style="edgeStyle=orthogonalEdgeStyle;rounded=0;orthogonalLoop=1;jettySize=auto;html=1;entryX=0;entryY=0.5;entryDx=0;entryDy=0;" edge="1" parent="1" source="kGxBxlIGUOEUOIpiZbDs-3" target="kGxBxlIGUOEUOIpiZbDs-12">
          <mxGeometry relative="1" as="geometry" />
        </mxCell>
        <mxCell id="kGxBxlIGUOEUOIpiZbDs-3" value="Bonus" style="ellipse;whiteSpace=wrap;html=1;" vertex="1" parent="1">
          <mxGeometry x="150" y="10" width="90" height="60" as="geometry" />
        </mxCell>
        <mxCell id="kGxBxlIGUOEUOIpiZbDs-6" style="edgeStyle=orthogonalEdgeStyle;rounded=0;orthogonalLoop=1;jettySize=auto;html=1;entryX=0;entryY=0.5;entryDx=0;entryDy=0;" edge="1" parent="1" source="kGxBxlIGUOEUOIpiZbDs-4" target="kGxBxlIGUOEUOIpiZbDs-5">
          <mxGeometry relative="1" as="geometry" />
        </mxCell>
        <mxCell id="kGxBxlIGUOEUOIpiZbDs-4" value="Interview Prep Jan" style="rounded=1;whiteSpace=wrap;html=1;" vertex="1" parent="1">
          <mxGeometry x="20" y="120" width="90" height="40" as="geometry" />
        </mxCell>
        <mxCell id="kGxBxlIGUOEUOIpiZbDs-10" style="edgeStyle=orthogonalEdgeStyle;rounded=0;orthogonalLoop=1;jettySize=auto;html=1;" edge="1" parent="1" source="kGxBxlIGUOEUOIpiZbDs-5" target="kGxBxlIGUOEUOIpiZbDs-8">
          <mxGeometry relative="1" as="geometry" />
        </mxCell>
        <mxCell id="kGxBxlIGUOEUOIpiZbDs-11" style="edgeStyle=orthogonalEdgeStyle;rounded=0;orthogonalLoop=1;jettySize=auto;html=1;" edge="1" parent="1" source="kGxBxlIGUOEUOIpiZbDs-5" target="kGxBxlIGUOEUOIpiZbDs-9">
          <mxGeometry relative="1" as="geometry" />
        </mxCell>
        <mxCell id="kGxBxlIGUOEUOIpiZbDs-5" value="New Job" style="ellipse;whiteSpace=wrap;html=1;" vertex="1" parent="1">
          <mxGeometry x="150" y="110" width="90" height="60" as="geometry" />
        </mxCell>
        <mxCell id="kGxBxlIGUOEUOIpiZbDs-8" value="Bonus" style="ellipse;whiteSpace=wrap;html=1;" vertex="1" parent="1">
          <mxGeometry x="290" y="80" width="90" height="60" as="geometry" />
        </mxCell>
        <mxCell id="kGxBxlIGUOEUOIpiZbDs-30" style="edgeStyle=orthogonalEdgeStyle;rounded=0;orthogonalLoop=1;jettySize=auto;html=1;entryX=0;entryY=0.5;entryDx=0;entryDy=0;" edge="1" parent="1" source="kGxBxlIGUOEUOIpiZbDs-9" target="kGxBxlIGUOEUOIpiZbDs-22">
          <mxGeometry relative="1" as="geometry" />
        </mxCell>
        <mxCell id="kGxBxlIGUOEUOIpiZbDs-31" style="edgeStyle=orthogonalEdgeStyle;rounded=0;orthogonalLoop=1;jettySize=auto;html=1;entryX=0;entryY=0.5;entryDx=0;entryDy=0;" edge="1" parent="1" source="kGxBxlIGUOEUOIpiZbDs-9" target="kGxBxlIGUOEUOIpiZbDs-23">
          <mxGeometry relative="1" as="geometry" />
        </mxCell>
        <mxCell id="kGxBxlIGUOEUOIpiZbDs-9" value="Increased Salary" style="ellipse;whiteSpace=wrap;html=1;" vertex="1" parent="1">
          <mxGeometry x="290" y="150" width="90" height="60" as="geometry" />
        </mxCell>
        <mxCell id="kGxBxlIGUOEUOIpiZbDs-16" style="edgeStyle=orthogonalEdgeStyle;rounded=0;orthogonalLoop=1;jettySize=auto;html=1;entryX=0;entryY=0.5;entryDx=0;entryDy=0;" edge="1" parent="1" source="kGxBxlIGUOEUOIpiZbDs-12" target="kGxBxlIGUOEUOIpiZbDs-15">
          <mxGeometry relative="1" as="geometry" />
        </mxCell>
        <mxCell id="kGxBxlIGUOEUOIpiZbDs-17" style="edgeStyle=orthogonalEdgeStyle;rounded=0;orthogonalLoop=1;jettySize=auto;html=1;entryX=0;entryY=0.5;entryDx=0;entryDy=0;" edge="1" parent="1" source="kGxBxlIGUOEUOIpiZbDs-12" target="kGxBxlIGUOEUOIpiZbDs-14">
          <mxGeometry relative="1" as="geometry" />
        </mxCell>
        <mxCell id="kGxBxlIGUOEUOIpiZbDs-50" style="edgeStyle=orthogonalEdgeStyle;rounded=0;orthogonalLoop=1;jettySize=auto;html=1;entryX=0;entryY=0.5;entryDx=0;entryDy=0;" edge="1" parent="1" source="kGxBxlIGUOEUOIpiZbDs-12" target="kGxBxlIGUOEUOIpiZbDs-49">
          <mxGeometry relative="1" as="geometry" />
        </mxCell>
        <mxCell id="kGxBxlIGUOEUOIpiZbDs-12" value="House Improvements" style="rounded=1;whiteSpace=wrap;html=1;" vertex="1" parent="1">
          <mxGeometry x="290" y="20" width="90" height="40" as="geometry" />
        </mxCell>
        <mxCell id="kGxBxlIGUOEUOIpiZbDs-52" style="edgeStyle=orthogonalEdgeStyle;rounded=0;orthogonalLoop=1;jettySize=auto;html=1;entryX=0;entryY=0.5;entryDx=0;entryDy=0;" edge="1" parent="1" source="kGxBxlIGUOEUOIpiZbDs-14" target="kGxBxlIGUOEUOIpiZbDs-35">
          <mxGeometry relative="1" as="geometry" />
        </mxCell>
        <mxCell id="kGxBxlIGUOEUOIpiZbDs-14" value="Gas, Heating and Cooling" style="ellipse;whiteSpace=wrap;html=1;" vertex="1" parent="1">
          <mxGeometry x="440" width="90" height="60" as="geometry" />
        </mxCell>
        <mxCell id="kGxBxlIGUOEUOIpiZbDs-47" style="edgeStyle=orthogonalEdgeStyle;rounded=0;orthogonalLoop=1;jettySize=auto;html=1;entryX=0;entryY=0.5;entryDx=0;entryDy=0;" edge="1" parent="1" source="kGxBxlIGUOEUOIpiZbDs-15" target="kGxBxlIGUOEUOIpiZbDs-35">
          <mxGeometry relative="1" as="geometry" />
        </mxCell>
        <mxCell id="kGxBxlIGUOEUOIpiZbDs-15" value="Generator, Solar" style="ellipse;whiteSpace=wrap;html=1;" vertex="1" parent="1">
          <mxGeometry x="440" y="-70" width="90" height="60" as="geometry" />
        </mxCell>
        <mxCell id="kGxBxlIGUOEUOIpiZbDs-18" value="Doom Day Plan" style="ellipse;whiteSpace=wrap;html=1;" vertex="1" parent="1">
          <mxGeometry x="1060" y="150" width="260" height="140" as="geometry" />
        </mxCell>
        <mxCell id="kGxBxlIGUOEUOIpiZbDs-33" style="edgeStyle=orthogonalEdgeStyle;rounded=0;orthogonalLoop=1;jettySize=auto;html=1;entryX=0;entryY=0.5;entryDx=0;entryDy=0;" edge="1" parent="1" source="kGxBxlIGUOEUOIpiZbDs-22" target="kGxBxlIGUOEUOIpiZbDs-25">
          <mxGeometry relative="1" as="geometry" />
        </mxCell>
        <mxCell id="kGxBxlIGUOEUOIpiZbDs-22" value="Save More Money" style="rounded=1;whiteSpace=wrap;html=1;" vertex="1" parent="1">
          <mxGeometry x="430" y="140" width="90" height="40" as="geometry" />
        </mxCell>
        <mxCell id="kGxBxlIGUOEUOIpiZbDs-34" style="edgeStyle=orthogonalEdgeStyle;rounded=0;orthogonalLoop=1;jettySize=auto;html=1;entryX=0;entryY=0.5;entryDx=0;entryDy=0;" edge="1" parent="1" source="kGxBxlIGUOEUOIpiZbDs-23" target="kGxBxlIGUOEUOIpiZbDs-25">
          <mxGeometry relative="1" as="geometry" />
        </mxCell>
        <mxCell id="kGxBxlIGUOEUOIpiZbDs-41" style="edgeStyle=orthogonalEdgeStyle;rounded=0;orthogonalLoop=1;jettySize=auto;html=1;entryX=0;entryY=0.5;entryDx=0;entryDy=0;exitX=0.5;exitY=1;exitDx=0;exitDy=0;" edge="1" parent="1" source="kGxBxlIGUOEUOIpiZbDs-23" target="kGxBxlIGUOEUOIpiZbDs-40">
          <mxGeometry relative="1" as="geometry" />
        </mxCell>
        <mxCell id="kGxBxlIGUOEUOIpiZbDs-43" style="edgeStyle=orthogonalEdgeStyle;rounded=0;orthogonalLoop=1;jettySize=auto;html=1;entryX=0;entryY=0.5;entryDx=0;entryDy=0;exitX=0.5;exitY=1;exitDx=0;exitDy=0;" edge="1" parent="1" source="kGxBxlIGUOEUOIpiZbDs-23" target="kGxBxlIGUOEUOIpiZbDs-42">
          <mxGeometry relative="1" as="geometry" />
        </mxCell>
        <mxCell id="kGxBxlIGUOEUOIpiZbDs-23" value="Invest More Money" style="rounded=1;whiteSpace=wrap;html=1;" vertex="1" parent="1">
          <mxGeometry x="430" y="190" width="90" height="40" as="geometry" />
        </mxCell>
        <mxCell id="kGxBxlIGUOEUOIpiZbDs-24" value="" style="endArrow=classic;html=1;rounded=0;exitX=0.5;exitY=0;exitDx=0;exitDy=0;entryX=0.5;entryY=1;entryDx=0;entryDy=0;" edge="1" parent="1" source="kGxBxlIGUOEUOIpiZbDs-8" target="kGxBxlIGUOEUOIpiZbDs-12">
          <mxGeometry width="50" height="50" relative="1" as="geometry">
            <mxPoint x="530" y="230" as="sourcePoint" />
            <mxPoint x="580" y="180" as="targetPoint" />
          </mxGeometry>
        </mxCell>
        <mxCell id="kGxBxlIGUOEUOIpiZbDs-28" style="edgeStyle=orthogonalEdgeStyle;rounded=0;orthogonalLoop=1;jettySize=auto;html=1;entryX=0;entryY=0.5;entryDx=0;entryDy=0;" edge="1" parent="1" source="kGxBxlIGUOEUOIpiZbDs-25" target="kGxBxlIGUOEUOIpiZbDs-27">
          <mxGeometry relative="1" as="geometry" />
        </mxCell>
        <mxCell id="kGxBxlIGUOEUOIpiZbDs-32" style="edgeStyle=orthogonalEdgeStyle;rounded=0;orthogonalLoop=1;jettySize=auto;html=1;entryX=0;entryY=0.5;entryDx=0;entryDy=0;" edge="1" parent="1" source="kGxBxlIGUOEUOIpiZbDs-25" target="kGxBxlIGUOEUOIpiZbDs-26">
          <mxGeometry relative="1" as="geometry" />
        </mxCell>
        <mxCell id="kGxBxlIGUOEUOIpiZbDs-25" value="Buy Next Property" style="rounded=1;whiteSpace=wrap;html=1;" vertex="1" parent="1">
          <mxGeometry x="560" y="170" width="90" height="40" as="geometry" />
        </mxCell>
        <mxCell id="kGxBxlIGUOEUOIpiZbDs-57" style="edgeStyle=orthogonalEdgeStyle;rounded=0;orthogonalLoop=1;jettySize=auto;html=1;entryX=0;entryY=1;entryDx=0;entryDy=0;" edge="1" parent="1" source="kGxBxlIGUOEUOIpiZbDs-26" target="kGxBxlIGUOEUOIpiZbDs-36">
          <mxGeometry relative="1" as="geometry" />
        </mxCell>
        <mxCell id="kGxBxlIGUOEUOIpiZbDs-58" style="edgeStyle=orthogonalEdgeStyle;rounded=0;orthogonalLoop=1;jettySize=auto;html=1;entryX=1;entryY=0.5;entryDx=0;entryDy=0;" edge="1" parent="1" source="kGxBxlIGUOEUOIpiZbDs-26" target="kGxBxlIGUOEUOIpiZbDs-35">
          <mxGeometry relative="1" as="geometry" />
        </mxCell>
        <mxCell id="kGxBxlIGUOEUOIpiZbDs-26" value="Build Custom" style="ellipse;whiteSpace=wrap;html=1;" vertex="1" parent="1">
          <mxGeometry x="700" y="110" width="90" height="60" as="geometry" />
        </mxCell>
        <mxCell id="kGxBxlIGUOEUOIpiZbDs-53" style="edgeStyle=orthogonalEdgeStyle;rounded=0;orthogonalLoop=1;jettySize=auto;html=1;entryX=0;entryY=0.5;entryDx=0;entryDy=0;exitX=0.5;exitY=1;exitDx=0;exitDy=0;" edge="1" parent="1" source="kGxBxlIGUOEUOIpiZbDs-27" target="kGxBxlIGUOEUOIpiZbDs-37">
          <mxGeometry relative="1" as="geometry" />
        </mxCell>
        <mxCell id="kGxBxlIGUOEUOIpiZbDs-27" value="Abroad" style="ellipse;whiteSpace=wrap;html=1;" vertex="1" parent="1">
          <mxGeometry x="700" y="190" width="90" height="60" as="geometry" />
        </mxCell>
        <mxCell id="kGxBxlIGUOEUOIpiZbDs-35" value="Global Warming" style="ellipse;whiteSpace=wrap;html=1;" vertex="1" parent="1">
          <mxGeometry x="880" y="-30" width="90" height="60" as="geometry" />
        </mxCell>
        <mxCell id="kGxBxlIGUOEUOIpiZbDs-36" value="Water Shortage" style="ellipse;whiteSpace=wrap;html=1;" vertex="1" parent="1">
          <mxGeometry x="880" y="70" width="90" height="60" as="geometry" />
        </mxCell>
        <mxCell id="kGxBxlIGUOEUOIpiZbDs-37" value="War" style="ellipse;whiteSpace=wrap;html=1;" vertex="1" parent="1">
          <mxGeometry x="880" y="360" width="90" height="60" as="geometry" />
        </mxCell>
        <mxCell id="kGxBxlIGUOEUOIpiZbDs-38" value="Inflation" style="ellipse;whiteSpace=wrap;html=1;" vertex="1" parent="1">
          <mxGeometry x="880" y="260" width="90" height="60" as="geometry" />
        </mxCell>
        <mxCell id="kGxBxlIGUOEUOIpiZbDs-45" style="edgeStyle=orthogonalEdgeStyle;rounded=0;orthogonalLoop=1;jettySize=auto;html=1;entryX=0;entryY=0.5;entryDx=0;entryDy=0;" edge="1" parent="1" source="kGxBxlIGUOEUOIpiZbDs-40" target="kGxBxlIGUOEUOIpiZbDs-44">
          <mxGeometry relative="1" as="geometry">
            <Array as="points">
              <mxPoint x="810" y="290" />
              <mxPoint x="810" y="200" />
            </Array>
          </mxGeometry>
        </mxCell>
        <mxCell id="kGxBxlIGUOEUOIpiZbDs-46" style="edgeStyle=orthogonalEdgeStyle;rounded=0;orthogonalLoop=1;jettySize=auto;html=1;" edge="1" parent="1" source="kGxBxlIGUOEUOIpiZbDs-40" target="kGxBxlIGUOEUOIpiZbDs-38">
          <mxGeometry relative="1" as="geometry" />
        </mxCell>
        <mxCell id="kGxBxlIGUOEUOIpiZbDs-40" value="Crypto" style="ellipse;whiteSpace=wrap;html=1;" vertex="1" parent="1">
          <mxGeometry x="560" y="260" width="90" height="60" as="geometry" />
        </mxCell>
        <mxCell id="kGxBxlIGUOEUOIpiZbDs-42" value="Stock" style="ellipse;whiteSpace=wrap;html=1;" vertex="1" parent="1">
          <mxGeometry x="560" y="340" width="90" height="60" as="geometry" />
        </mxCell>
        <mxCell id="kGxBxlIGUOEUOIpiZbDs-44" value="Economic Shift" style="ellipse;whiteSpace=wrap;html=1;" vertex="1" parent="1">
          <mxGeometry x="880" y="170" width="90" height="60" as="geometry" />
        </mxCell>
        <mxCell id="kGxBxlIGUOEUOIpiZbDs-51" style="edgeStyle=orthogonalEdgeStyle;rounded=0;orthogonalLoop=1;jettySize=auto;html=1;" edge="1" parent="1" source="kGxBxlIGUOEUOIpiZbDs-49" target="kGxBxlIGUOEUOIpiZbDs-36">
          <mxGeometry relative="1" as="geometry" />
        </mxCell>
        <mxCell id="kGxBxlIGUOEUOIpiZbDs-49" value="Water Purification System" style="ellipse;whiteSpace=wrap;html=1;" vertex="1" parent="1">
          <mxGeometry x="440" y="70" width="90" height="60" as="geometry" />
        </mxCell>
        <mxCell id="kGxBxlIGUOEUOIpiZbDs-65" style="edgeStyle=orthogonalEdgeStyle;rounded=0;orthogonalLoop=1;jettySize=auto;html=1;" edge="1" parent="1" source="kGxBxlIGUOEUOIpiZbDs-59" target="kGxBxlIGUOEUOIpiZbDs-61">
          <mxGeometry relative="1" as="geometry" />
        </mxCell>
        <mxCell id="kGxBxlIGUOEUOIpiZbDs-59" value="Dabble In Crypto" style="rounded=1;whiteSpace=wrap;html=1;" vertex="1" parent="1">
          <mxGeometry x="20" y="260" width="90" height="40" as="geometry" />
        </mxCell>
        <mxCell id="kGxBxlIGUOEUOIpiZbDs-71" style="edgeStyle=orthogonalEdgeStyle;rounded=0;orthogonalLoop=1;jettySize=auto;html=1;entryX=0;entryY=0.5;entryDx=0;entryDy=0;" edge="1" parent="1" source="kGxBxlIGUOEUOIpiZbDs-60" target="kGxBxlIGUOEUOIpiZbDs-69">
          <mxGeometry relative="1" as="geometry" />
        </mxCell>
        <mxCell id="kGxBxlIGUOEUOIpiZbDs-72" style="edgeStyle=orthogonalEdgeStyle;rounded=0;orthogonalLoop=1;jettySize=auto;html=1;entryX=0;entryY=0.5;entryDx=0;entryDy=0;" edge="1" parent="1" source="kGxBxlIGUOEUOIpiZbDs-60" target="kGxBxlIGUOEUOIpiZbDs-70">
          <mxGeometry relative="1" as="geometry" />
        </mxCell>
        <mxCell id="kGxBxlIGUOEUOIpiZbDs-60" value="Read More" style="rounded=1;whiteSpace=wrap;html=1;" vertex="1" parent="1">
          <mxGeometry x="20" y="360" width="90" height="40" as="geometry" />
        </mxCell>
        <mxCell id="kGxBxlIGUOEUOIpiZbDs-67" style="edgeStyle=orthogonalEdgeStyle;rounded=0;orthogonalLoop=1;jettySize=auto;html=1;entryX=0.111;entryY=0.333;entryDx=0;entryDy=0;entryPerimeter=0;" edge="1" parent="1" source="kGxBxlIGUOEUOIpiZbDs-61" target="kGxBxlIGUOEUOIpiZbDs-40">
          <mxGeometry relative="1" as="geometry" />
        </mxCell>
        <mxCell id="kGxBxlIGUOEUOIpiZbDs-75" style="edgeStyle=orthogonalEdgeStyle;rounded=0;orthogonalLoop=1;jettySize=auto;html=1;entryX=0;entryY=0;entryDx=0;entryDy=0;exitX=1;exitY=0.75;exitDx=0;exitDy=0;" edge="1" parent="1" source="kGxBxlIGUOEUOIpiZbDs-61" target="kGxBxlIGUOEUOIpiZbDs-63">
          <mxGeometry relative="1" as="geometry" />
        </mxCell>
        <mxCell id="kGxBxlIGUOEUOIpiZbDs-61" value="Write" style="rounded=1;whiteSpace=wrap;html=1;" vertex="1" parent="1">
          <mxGeometry x="190" y="260" width="90" height="40" as="geometry" />
        </mxCell>
        <mxCell id="kGxBxlIGUOEUOIpiZbDs-64" style="edgeStyle=orthogonalEdgeStyle;rounded=0;orthogonalLoop=1;jettySize=auto;html=1;entryX=0.5;entryY=1;entryDx=0;entryDy=0;" edge="1" parent="1" source="kGxBxlIGUOEUOIpiZbDs-63" target="kGxBxlIGUOEUOIpiZbDs-9">
          <mxGeometry relative="1" as="geometry" />
        </mxCell>
        <mxCell id="kGxBxlIGUOEUOIpiZbDs-63" value="Next Role (CTO related)" style="ellipse;whiteSpace=wrap;html=1;" vertex="1" parent="1">
          <mxGeometry x="310" y="340" width="90" height="60" as="geometry" />
        </mxCell>
        <mxCell id="kGxBxlIGUOEUOIpiZbDs-73" style="edgeStyle=orthogonalEdgeStyle;rounded=0;orthogonalLoop=1;jettySize=auto;html=1;" edge="1" parent="1" source="kGxBxlIGUOEUOIpiZbDs-69" target="kGxBxlIGUOEUOIpiZbDs-63">
          <mxGeometry relative="1" as="geometry" />
        </mxCell>
        <mxCell id="kGxBxlIGUOEUOIpiZbDs-69" value="12 Books per year at least" style="ellipse;whiteSpace=wrap;html=1;" vertex="1" parent="1">
          <mxGeometry x="160" y="310" width="90" height="60" as="geometry" />
        </mxCell>
        <mxCell id="kGxBxlIGUOEUOIpiZbDs-74" style="edgeStyle=orthogonalEdgeStyle;rounded=0;orthogonalLoop=1;jettySize=auto;html=1;entryX=0;entryY=0.5;entryDx=0;entryDy=0;" edge="1" parent="1" source="kGxBxlIGUOEUOIpiZbDs-70" target="kGxBxlIGUOEUOIpiZbDs-63">
          <mxGeometry relative="1" as="geometry" />
        </mxCell>
        <mxCell id="kGxBxlIGUOEUOIpiZbDs-70" value="Industry Pulse" style="ellipse;whiteSpace=wrap;html=1;" vertex="1" parent="1">
          <mxGeometry x="160" y="390" width="90" height="60" as="geometry" />
        </mxCell>
        <mxCell id="kGxBxlIGUOEUOIpiZbDs-81" style="edgeStyle=orthogonalEdgeStyle;rounded=0;orthogonalLoop=1;jettySize=auto;html=1;entryX=0;entryY=0.5;entryDx=0;entryDy=0;" edge="1" parent="1" source="kGxBxlIGUOEUOIpiZbDs-76" target="kGxBxlIGUOEUOIpiZbDs-80">
          <mxGeometry relative="1" as="geometry" />
        </mxCell>
        <mxCell id="kGxBxlIGUOEUOIpiZbDs-76" value="Consistent Workout" style="rounded=1;whiteSpace=wrap;html=1;" vertex="1" parent="1">
          <mxGeometry x="20" y="470" width="90" height="40" as="geometry" />
        </mxCell>
        <mxCell id="kGxBxlIGUOEUOIpiZbDs-82" style="edgeStyle=orthogonalEdgeStyle;rounded=0;orthogonalLoop=1;jettySize=auto;html=1;entryX=0;entryY=0.5;entryDx=0;entryDy=0;" edge="1" parent="1" source="kGxBxlIGUOEUOIpiZbDs-77" target="kGxBxlIGUOEUOIpiZbDs-80">
          <mxGeometry relative="1" as="geometry" />
        </mxCell>
        <mxCell id="kGxBxlIGUOEUOIpiZbDs-77" value="Fix Injuries" style="rounded=1;whiteSpace=wrap;html=1;" vertex="1" parent="1">
          <mxGeometry x="20" y="530" width="90" height="40" as="geometry" />
        </mxCell>
        <mxCell id="kGxBxlIGUOEUOIpiZbDs-85" style="edgeStyle=orthogonalEdgeStyle;rounded=0;orthogonalLoop=1;jettySize=auto;html=1;entryX=0;entryY=0.5;entryDx=0;entryDy=0;" edge="1" parent="1" source="kGxBxlIGUOEUOIpiZbDs-78" target="kGxBxlIGUOEUOIpiZbDs-83">
          <mxGeometry relative="1" as="geometry" />
        </mxCell>
        <mxCell id="kGxBxlIGUOEUOIpiZbDs-78" value="Fast over 48 hours 2 times per year" style="rounded=1;whiteSpace=wrap;html=1;" vertex="1" parent="1">
          <mxGeometry x="20" y="590" width="90" height="40" as="geometry" />
        </mxCell>
        <mxCell id="kGxBxlIGUOEUOIpiZbDs-87" style="edgeStyle=orthogonalEdgeStyle;rounded=0;orthogonalLoop=1;jettySize=auto;html=1;entryX=0.5;entryY=1;entryDx=0;entryDy=0;" edge="1" parent="1" source="kGxBxlIGUOEUOIpiZbDs-79" target="kGxBxlIGUOEUOIpiZbDs-83">
          <mxGeometry relative="1" as="geometry" />
        </mxCell>
        <mxCell id="kGxBxlIGUOEUOIpiZbDs-79" value="Better Vball" style="rounded=1;whiteSpace=wrap;html=1;" vertex="1" parent="1">
          <mxGeometry x="20" y="650" width="90" height="40" as="geometry" />
        </mxCell>
        <mxCell id="kGxBxlIGUOEUOIpiZbDs-86" style="edgeStyle=orthogonalEdgeStyle;rounded=0;orthogonalLoop=1;jettySize=auto;html=1;entryX=0.5;entryY=0;entryDx=0;entryDy=0;" edge="1" parent="1" source="kGxBxlIGUOEUOIpiZbDs-80" target="kGxBxlIGUOEUOIpiZbDs-83">
          <mxGeometry relative="1" as="geometry" />
        </mxCell>
        <mxCell id="kGxBxlIGUOEUOIpiZbDs-80" value="Run 5k in 20 mins" style="ellipse;whiteSpace=wrap;html=1;" vertex="1" parent="1">
          <mxGeometry x="160" y="490" width="90" height="60" as="geometry" />
        </mxCell>
        <mxCell id="kGxBxlIGUOEUOIpiZbDs-84" style="edgeStyle=orthogonalEdgeStyle;rounded=0;orthogonalLoop=1;jettySize=auto;html=1;entryX=0;entryY=1;entryDx=0;entryDy=0;" edge="1" parent="1" source="kGxBxlIGUOEUOIpiZbDs-83" target="kGxBxlIGUOEUOIpiZbDs-37">
          <mxGeometry relative="1" as="geometry" />
        </mxCell>
        <mxCell id="kGxBxlIGUOEUOIpiZbDs-83" value="Better Physical Health" style="ellipse;whiteSpace=wrap;html=1;" vertex="1" parent="1">
          <mxGeometry x="310" y="580" width="90" height="60" as="geometry" />
        </mxCell>
        <mxCell id="kGxBxlIGUOEUOIpiZbDs-90" style="edgeStyle=orthogonalEdgeStyle;rounded=0;orthogonalLoop=1;jettySize=auto;html=1;entryX=0;entryY=0.5;entryDx=0;entryDy=0;" edge="1" parent="1" source="kGxBxlIGUOEUOIpiZbDs-88" target="kGxBxlIGUOEUOIpiZbDs-89">
          <mxGeometry relative="1" as="geometry" />
        </mxCell>
        <mxCell id="kGxBxlIGUOEUOIpiZbDs-88" value="Buy a gun" style="rounded=1;whiteSpace=wrap;html=1;" vertex="1" parent="1">
          <mxGeometry x="20" y="800" width="90" height="40" as="geometry" />
        </mxCell>
        <mxCell id="kGxBxlIGUOEUOIpiZbDs-91" style="edgeStyle=orthogonalEdgeStyle;rounded=0;orthogonalLoop=1;jettySize=auto;html=1;entryX=0.689;entryY=1;entryDx=0;entryDy=0;entryPerimeter=0;" edge="1" parent="1" source="kGxBxlIGUOEUOIpiZbDs-89" target="kGxBxlIGUOEUOIpiZbDs-37">
          <mxGeometry relative="1" as="geometry" />
        </mxCell>
        <mxCell id="kGxBxlIGUOEUOIpiZbDs-89" value="Shooting Range" style="ellipse;whiteSpace=wrap;html=1;" vertex="1" parent="1">
          <mxGeometry x="310" y="790" width="90" height="60" as="geometry" />
        </mxCell>
        <mxCell id="kGxBxlIGUOEUOIpiZbDs-94" style="edgeStyle=orthogonalEdgeStyle;rounded=0;orthogonalLoop=1;jettySize=auto;html=1;entryX=0;entryY=0.5;entryDx=0;entryDy=0;" edge="1" parent="1" source="kGxBxlIGUOEUOIpiZbDs-92" target="kGxBxlIGUOEUOIpiZbDs-93">
          <mxGeometry relative="1" as="geometry" />
        </mxCell>
        <mxCell id="kGxBxlIGUOEUOIpiZbDs-92" value="Martial Arts" style="rounded=1;whiteSpace=wrap;html=1;" vertex="1" parent="1">
          <mxGeometry x="520" y="710" width="90" height="40" as="geometry" />
        </mxCell>
        <mxCell id="kGxBxlIGUOEUOIpiZbDs-95" style="edgeStyle=orthogonalEdgeStyle;rounded=0;orthogonalLoop=1;jettySize=auto;html=1;entryX=0.5;entryY=1;entryDx=0;entryDy=0;" edge="1" parent="1" source="kGxBxlIGUOEUOIpiZbDs-93" target="kGxBxlIGUOEUOIpiZbDs-37">
          <mxGeometry relative="1" as="geometry" />
        </mxCell>
        <mxCell id="kGxBxlIGUOEUOIpiZbDs-93" value="Hand to Hand" style="ellipse;whiteSpace=wrap;html=1;" vertex="1" parent="1">
          <mxGeometry x="710" y="700" width="90" height="60" as="geometry" />
        </mxCell>
        <mxCell id="kGxBxlIGUOEUOIpiZbDs-99" style="edgeStyle=orthogonalEdgeStyle;rounded=0;orthogonalLoop=1;jettySize=auto;html=1;entryX=0;entryY=0.5;entryDx=0;entryDy=0;" edge="1" parent="1" source="kGxBxlIGUOEUOIpiZbDs-96" target="kGxBxlIGUOEUOIpiZbDs-98">
          <mxGeometry relative="1" as="geometry" />
        </mxCell>
        <mxCell id="kGxBxlIGUOEUOIpiZbDs-96" value="Continue $200/month to Mom" style="rounded=1;whiteSpace=wrap;html=1;" vertex="1" parent="1">
          <mxGeometry x="20" y="860" width="90" height="40" as="geometry" />
        </mxCell>
        <mxCell id="kGxBxlIGUOEUOIpiZbDs-100" style="edgeStyle=orthogonalEdgeStyle;rounded=0;orthogonalLoop=1;jettySize=auto;html=1;entryX=0;entryY=0.5;entryDx=0;entryDy=0;" edge="1" parent="1" source="kGxBxlIGUOEUOIpiZbDs-97" target="kGxBxlIGUOEUOIpiZbDs-98">
          <mxGeometry relative="1" as="geometry" />
        </mxCell>
        <mxCell id="kGxBxlIGUOEUOIpiZbDs-97" value="$2000 per year to Charity" style="rounded=1;whiteSpace=wrap;html=1;" vertex="1" parent="1">
          <mxGeometry x="20" y="920" width="90" height="40" as="geometry" />
        </mxCell>
        <mxCell id="kGxBxlIGUOEUOIpiZbDs-98" value="Charity and Donations" style="ellipse;whiteSpace=wrap;html=1;" vertex="1" parent="1">
          <mxGeometry x="200" y="870" width="90" height="60" as="geometry" />
        </mxCell>
        <mxCell id="kGxBxlIGUOEUOIpiZbDs-111" style="edgeStyle=orthogonalEdgeStyle;rounded=0;orthogonalLoop=1;jettySize=auto;html=1;entryX=0.5;entryY=1;entryDx=0;entryDy=0;" edge="1" parent="1" source="kGxBxlIGUOEUOIpiZbDs-101" target="kGxBxlIGUOEUOIpiZbDs-106">
          <mxGeometry relative="1" as="geometry" />
        </mxCell>
        <mxCell id="kGxBxlIGUOEUOIpiZbDs-112" style="edgeStyle=orthogonalEdgeStyle;rounded=0;orthogonalLoop=1;jettySize=auto;html=1;entryX=0.5;entryY=1;entryDx=0;entryDy=0;" edge="1" parent="1" source="kGxBxlIGUOEUOIpiZbDs-101" target="kGxBxlIGUOEUOIpiZbDs-105">
          <mxGeometry relative="1" as="geometry" />
        </mxCell>
        <mxCell id="kGxBxlIGUOEUOIpiZbDs-113" style="edgeStyle=orthogonalEdgeStyle;rounded=0;orthogonalLoop=1;jettySize=auto;html=1;entryX=0.5;entryY=1;entryDx=0;entryDy=0;" edge="1" parent="1" source="kGxBxlIGUOEUOIpiZbDs-101" target="kGxBxlIGUOEUOIpiZbDs-104">
          <mxGeometry relative="1" as="geometry" />
        </mxCell>
        <mxCell id="kGxBxlIGUOEUOIpiZbDs-115" style="edgeStyle=orthogonalEdgeStyle;rounded=0;orthogonalLoop=1;jettySize=auto;html=1;entryX=0;entryY=0.5;entryDx=0;entryDy=0;" edge="1" parent="1" source="kGxBxlIGUOEUOIpiZbDs-101" target="kGxBxlIGUOEUOIpiZbDs-114">
          <mxGeometry relative="1" as="geometry" />
        </mxCell>
        <mxCell id="kGxBxlIGUOEUOIpiZbDs-101" value="Travel 2 times" style="rounded=1;whiteSpace=wrap;html=1;" vertex="1" parent="1">
          <mxGeometry x="130" y="1080" width="90" height="40" as="geometry" />
        </mxCell>
        <mxCell id="kGxBxlIGUOEUOIpiZbDs-103" style="edgeStyle=orthogonalEdgeStyle;rounded=0;orthogonalLoop=1;jettySize=auto;html=1;entryX=0.5;entryY=1;entryDx=0;entryDy=0;" edge="1" parent="1" source="kGxBxlIGUOEUOIpiZbDs-102" target="kGxBxlIGUOEUOIpiZbDs-101">
          <mxGeometry relative="1" as="geometry" />
        </mxCell>
        <mxCell id="kGxBxlIGUOEUOIpiZbDs-102" value="Credit Card Churning" style="rounded=1;whiteSpace=wrap;html=1;" vertex="1" parent="1">
          <mxGeometry x="10" y="1150" width="90" height="40" as="geometry" />
        </mxCell>
        <mxCell id="kGxBxlIGUOEUOIpiZbDs-104" value="England" style="ellipse;whiteSpace=wrap;html=1;" vertex="1" parent="1">
          <mxGeometry x="130" y="970" width="90" height="60" as="geometry" />
        </mxCell>
        <mxCell id="kGxBxlIGUOEUOIpiZbDs-105" value="Disney" style="ellipse;whiteSpace=wrap;html=1;" vertex="1" parent="1">
          <mxGeometry x="250" y="970" width="90" height="60" as="geometry" />
        </mxCell>
        <mxCell id="kGxBxlIGUOEUOIpiZbDs-106" value="Tropics" style="ellipse;whiteSpace=wrap;html=1;" vertex="1" parent="1">
          <mxGeometry x="10" y="970" width="90" height="60" as="geometry" />
        </mxCell>
        <mxCell id="kGxBxlIGUOEUOIpiZbDs-114" value="Mental Health" style="ellipse;whiteSpace=wrap;html=1;" vertex="1" parent="1">
          <mxGeometry x="480" y="1070" width="90" height="60" as="geometry" />
        </mxCell>
        <mxCell id="kGxBxlIGUOEUOIpiZbDs-117" style="edgeStyle=orthogonalEdgeStyle;rounded=0;orthogonalLoop=1;jettySize=auto;html=1;entryX=0.5;entryY=1;entryDx=0;entryDy=0;" edge="1" parent="1" source="kGxBxlIGUOEUOIpiZbDs-116" target="kGxBxlIGUOEUOIpiZbDs-114">
          <mxGeometry relative="1" as="geometry" />
        </mxCell>
        <mxCell id="kGxBxlIGUOEUOIpiZbDs-124" style="edgeStyle=orthogonalEdgeStyle;rounded=0;orthogonalLoop=1;jettySize=auto;html=1;entryX=0.5;entryY=0;entryDx=0;entryDy=0;" edge="1" parent="1" source="kGxBxlIGUOEUOIpiZbDs-116" target="kGxBxlIGUOEUOIpiZbDs-119">
          <mxGeometry relative="1" as="geometry" />
        </mxCell>
        <mxCell id="kGxBxlIGUOEUOIpiZbDs-125" style="edgeStyle=orthogonalEdgeStyle;rounded=0;orthogonalLoop=1;jettySize=auto;html=1;entryX=0.5;entryY=0;entryDx=0;entryDy=0;" edge="1" parent="1" source="kGxBxlIGUOEUOIpiZbDs-116" target="kGxBxlIGUOEUOIpiZbDs-120">
          <mxGeometry relative="1" as="geometry" />
        </mxCell>
        <mxCell id="kGxBxlIGUOEUOIpiZbDs-126" style="edgeStyle=orthogonalEdgeStyle;rounded=0;orthogonalLoop=1;jettySize=auto;html=1;entryX=0.5;entryY=0;entryDx=0;entryDy=0;" edge="1" parent="1" source="kGxBxlIGUOEUOIpiZbDs-116" target="kGxBxlIGUOEUOIpiZbDs-121">
          <mxGeometry relative="1" as="geometry" />
        </mxCell>
        <mxCell id="kGxBxlIGUOEUOIpiZbDs-127" style="edgeStyle=orthogonalEdgeStyle;rounded=0;orthogonalLoop=1;jettySize=auto;html=1;entryX=0.5;entryY=0;entryDx=0;entryDy=0;" edge="1" parent="1" source="kGxBxlIGUOEUOIpiZbDs-116" target="kGxBxlIGUOEUOIpiZbDs-122">
          <mxGeometry relative="1" as="geometry" />
        </mxCell>
        <mxCell id="kGxBxlIGUOEUOIpiZbDs-116" value="Entertainment" style="rounded=1;whiteSpace=wrap;html=1;" vertex="1" parent="1">
          <mxGeometry x="200" y="1200" width="90" height="40" as="geometry" />
        </mxCell>
        <mxCell id="kGxBxlIGUOEUOIpiZbDs-119" value="Video Games" style="ellipse;whiteSpace=wrap;html=1;" vertex="1" parent="1">
          <mxGeometry x="10" y="1280" width="90" height="60" as="geometry" />
        </mxCell>
        <mxCell id="kGxBxlIGUOEUOIpiZbDs-120" value="Music" style="ellipse;whiteSpace=wrap;html=1;" vertex="1" parent="1">
          <mxGeometry x="120" y="1280" width="90" height="60" as="geometry" />
        </mxCell>
        <mxCell id="kGxBxlIGUOEUOIpiZbDs-121" value="Movies" style="ellipse;whiteSpace=wrap;html=1;" vertex="1" parent="1">
          <mxGeometry x="240" y="1280" width="90" height="60" as="geometry" />
        </mxCell>
        <mxCell id="kGxBxlIGUOEUOIpiZbDs-122" value="Friends" style="ellipse;whiteSpace=wrap;html=1;" vertex="1" parent="1">
          <mxGeometry x="360" y="1280" width="90" height="60" as="geometry" />
        </mxCell>
        <mxCell id="kGxBxlIGUOEUOIpiZbDs-129" style="edgeStyle=orthogonalEdgeStyle;rounded=0;orthogonalLoop=1;jettySize=auto;html=1;entryX=0.5;entryY=0;entryDx=0;entryDy=0;" edge="1" parent="1" source="kGxBxlIGUOEUOIpiZbDs-128" target="kGxBxlIGUOEUOIpiZbDs-114">
          <mxGeometry relative="1" as="geometry" />
        </mxCell>
        <mxCell id="kGxBxlIGUOEUOIpiZbDs-130" style="edgeStyle=orthogonalEdgeStyle;rounded=0;orthogonalLoop=1;jettySize=auto;html=1;entryX=1;entryY=1;entryDx=0;entryDy=0;" edge="1" parent="1" source="kGxBxlIGUOEUOIpiZbDs-128" target="kGxBxlIGUOEUOIpiZbDs-83">
          <mxGeometry relative="1" as="geometry">
            <Array as="points">
              <mxPoint x="440" y="631" />
            </Array>
          </mxGeometry>
        </mxCell>
        <mxCell id="kGxBxlIGUOEUOIpiZbDs-128" value="Yoga" style="rounded=1;whiteSpace=wrap;html=1;" vertex="1" parent="1">
          <mxGeometry x="420" y="930" width="90" height="40" as="geometry" />
        </mxCell>
        <mxCell id="kGxBxlIGUOEUOIpiZbDs-131" value="Start a Family" style="ellipse;whiteSpace=wrap;html=1;" vertex="1" parent="1">
          <mxGeometry x="750" y="1390" width="90" height="60" as="geometry" />
        </mxCell>
      </root>
    </mxGraphModel>
  </diagram>
</mxfile>
